<svg width="50px" height="50px" version="1.1" xmlns="http://www.w3.org/2000/svg" xmlns:xlink="http://www.w3.org/1999/xlink" viewBox="0 0 50 50" data-di-rand="1620204969111">
            <g>
              <path d="M8,20.913 C8,14.344 13.344,9 19.913,9 C26.482,9 31.827,14.344 31.827,20.913 C31.827,27.482 26.482,32.827 19.913,32.827 C13.344,32.827 8,27.482 8,20.913 M45.112,43.585 L32.346,30.82 C34.518,28.099 35.827,24.658 35.827,20.913 C35.827,12.139 28.688,5 19.913,5 C11.139,5 4,12.139 4,20.913 C4,29.688 11.139,36.827 19.913,36.827 C23.503,36.827 26.808,35.618 29.474,33.604 L42.284,46.413 C42.674,46.804 43.186,46.999 43.698,46.999 C44.209,46.999 44.721,46.804 45.112,46.413 C45.502,46.023 45.698,45.511 45.698,44.999 C45.698,44.488 45.502,43.976 45.112,43.585"></path>
            </g>
          </svg>